<svg width="512" height="512" viewBox="0 0 512 512" fill="none" xmlns="http://www.w3.org/2000/svg">
    <path
        d="M114.968 241.536C114.383 240.077 114.231 238.481 114.529 236.937C114.826 235.394 115.562 233.969 116.647 232.832C117.733 231.695 119.122 230.895 120.65 230.526C122.178 230.157 123.78 230.236 125.264 230.752C147.136 238.056 176.952 252.896 199.872 252.16L225.896 253.944C227.424 254.072 228.884 254.629 230.108 255.552C231.332 256.475 232.27 257.725 232.813 259.159C233.356 260.592 233.482 262.15 233.177 263.653C232.872 265.155 232.148 266.54 231.088 267.648L204.736 294.888C184.2 291.648 153.416 286.912 132.896 283.624L114.968 241.536ZM200.44 310.624C179.856 307.512 149.16 302.64 128.592 299.432C106.296 321.896 60.4 373.544 53.424 424.232C53.1811 425.958 53.492 427.717 54.312 429.256C61.1077 439.58 70.4697 447.96 81.48 453.576C81.4565 447.472 81.8897 441.375 82.776 435.336C86.0457 413.602 93.4223 392.688 104.512 373.712C105.694 371.978 107.5 370.768 109.553 370.335C111.607 369.902 113.748 370.281 115.529 371.391C117.31 372.501 118.592 374.256 119.108 376.291C119.624 378.325 119.333 380.479 118.296 382.304C110.251 396.301 104.32 411.411 100.696 427.144C98.0879 438.295 97.2136 449.782 98.104 461.2C112.499 466.343 127.533 469.482 142.784 470.528C139.449 459.824 137.834 448.658 138 437.448C138.065 425.036 139.754 412.686 143.024 400.712C143.637 398.658 145.041 396.932 146.927 395.913C148.813 394.895 151.026 394.667 153.08 395.28C155.134 395.893 156.86 397.297 157.879 399.183C158.897 401.069 159.125 403.282 158.512 405.336C155.637 416.32 154.193 427.63 154.216 438.984C154.241 446.502 155.168 453.99 156.976 461.288C158.992 466.216 160.928 478.528 166.624 479.528C186.577 481.263 206.674 478.86 225.656 472.472C217.089 459.907 210.32 446.206 205.544 431.768C204.983 429.733 205.239 427.559 206.257 425.71C207.276 423.861 208.976 422.483 210.996 421.87C213.016 421.256 215.195 421.456 217.07 422.426C218.945 423.396 220.367 425.061 221.032 427.064C225.08 439.44 230.811 451.201 238.064 462.016C240.704 465.288 247.104 475.048 250.624 476.448C263.737 474.533 276.619 471.274 289.064 466.72C290.495 466.454 291.833 465.823 292.948 464.889C294.064 463.955 294.92 462.749 295.434 461.388C295.948 460.026 296.102 458.555 295.882 457.117C295.662 455.678 295.074 454.321 294.176 453.176C293.448 452.28 225.816 371.04 200.44 310.624ZM178.216 232.944C186.598 235.032 195.202 236.093 203.84 236.104C214.384 195.88 243.896 96.144 289.472 49.272C289.758 48.9588 289.942 48.566 289.999 48.1459C290.056 47.7257 289.984 47.2981 289.792 46.92C287.945 43.2586 285.292 40.0634 282.033 37.574C278.773 35.0847 274.993 33.366 270.974 32.5469C266.956 31.7278 262.804 31.8296 258.831 32.8447C254.857 33.8598 251.165 35.7619 248.032 38.408C203.84 83.896 176.352 182.504 165.488 228.24C167.952 229.176 175.616 231.992 178.216 232.944ZM313.392 234.728C307.03 233.933 300.575 235.052 294.851 237.941C289.127 240.831 284.394 245.361 281.256 250.952C274.696 264.24 274.336 277.008 285.688 277.072C296.568 274.68 290.4 268.032 295.392 258.912C297.123 256.107 299.621 253.858 302.592 252.43C305.562 251.001 308.879 250.454 312.15 250.853C315.422 251.252 318.51 252.581 321.05 254.681C323.59 256.781 325.474 259.566 326.48 262.704C327.187 265.054 327.674 267.464 327.936 269.904C328.052 270.965 328.377 271.992 328.891 272.927C329.406 273.861 330.099 274.685 330.933 275.352C331.767 276.018 332.723 276.512 333.749 276.808C334.774 277.103 335.848 277.193 336.908 277.072C337.968 276.952 338.994 276.623 339.926 276.105C340.859 275.587 341.681 274.89 342.343 274.054C343.006 273.217 343.497 272.258 343.788 271.232C344.079 270.205 344.165 269.132 344.04 268.072C343.825 259.748 340.602 251.784 334.968 245.654C329.333 239.523 321.668 235.642 313.392 234.728ZM320.848 365.392C315.646 364.467 310.305 364.675 305.191 366C300.076 367.325 295.307 369.737 291.208 373.072C289.627 374.487 288.664 376.465 288.525 378.582C288.385 380.699 289.081 382.786 290.462 384.397C291.843 386.007 293.8 387.012 295.913 387.197C298.027 387.381 300.129 386.731 301.768 385.384C303.929 383.661 306.421 382.401 309.09 381.684C311.759 380.967 314.547 380.808 317.28 381.216C319.888 382.086 322.22 383.63 324.039 385.691C325.859 387.751 327.102 390.256 327.643 392.952C328.183 395.647 328.003 398.438 327.119 401.041C326.234 403.644 324.678 405.967 322.608 407.776C321.57 408.946 320.89 410.389 320.649 411.934C320.407 413.479 320.615 415.061 321.247 416.491C321.88 417.922 322.909 419.14 324.214 420.002C325.519 420.864 327.044 421.332 328.608 421.352C339.888 419.592 344.832 401.912 343.984 392.488C343.486 386.106 340.978 380.046 336.822 375.178C332.665 370.31 327.073 366.884 320.848 365.392ZM439.272 342.56C441.02 337.782 441.776 332.698 441.494 327.618C441.212 322.538 439.899 317.568 437.634 313.012C435.368 308.457 432.199 304.41 428.319 301.119C424.438 297.829 419.929 295.363 415.064 293.872C408.283 292.086 401.141 292.201 394.421 294.205C387.702 296.208 381.663 300.024 376.968 305.232C375.546 306.846 374.824 308.958 374.96 311.104C375.096 313.25 376.078 315.254 377.692 316.676C379.306 318.098 381.418 318.82 383.564 318.684C385.71 318.548 387.714 317.566 389.136 315.952C391.771 313.068 395.128 310.94 398.861 309.787C402.593 308.634 406.565 308.497 410.368 309.392C423.288 312.864 430.784 330.768 421.272 341.136C420.379 342.196 419.771 343.466 419.505 344.826C419.239 346.186 419.323 347.591 419.751 348.91C420.178 350.228 420.934 351.416 421.948 352.361C422.961 353.306 424.199 353.978 425.544 354.312C430.501 355.438 434.89 358.305 437.913 362.392C440.935 366.479 442.391 371.515 442.016 376.584C439.248 401.728 410.44 408.416 394.616 386.2C393.219 384.627 391.265 383.659 389.167 383.499C387.07 383.34 384.992 384.001 383.373 385.345C381.754 386.688 380.72 388.607 380.489 390.698C380.258 392.789 380.849 394.888 382.136 396.552C427.184 452.088 491.24 375.96 439.272 342.56Z"
        fill="url(#paint0_linear_13_47)" />
    <defs>
        <linearGradient id="paint0_linear_13_47" x1="53.344" y1="256" x2="458.656" y2="256"
            gradientUnits="userSpaceOnUse">
            <stop stop-color="#00C0FF" />
            <stop offset="1" stop-color="#5558FF" />
        </linearGradient>
    </defs>
</svg>
    